<?xml version="1.0" encoding="utf-8"?>
<svg viewBox="0 0 700 700" xmlns="http://www.w3.org/2000/svg">
  <ellipse style="stroke: rgb(0, 0, 0); stroke-width: 4px; fill: rgb(211, 204, 183);" cx="106.049" cy="423.822" rx="61.081" ry="55.835"/>
  <g>
    <ellipse style="stroke: rgb(0, 0, 0); stroke-width: 4px; fill: rgb(52, 48, 48);" cx="198.233" cy="257.173" rx="45.343" ry="42.827"/>
    <path style="stroke: rgb(0, 0, 0); stroke-width: 4px; fill: rgb(52, 48, 48);" d="M 195.225 299.074 L 204.195 491.183 C 204.195 493.349 221.014 496.546 221.014 491.931 L 213.538 295.889 L 205.69 300 L 195.225 299.074 Z"/>
  </g>
  <path style="stroke: rgb(0, 0, 0); fill: rgb(52, 48, 48); stroke-width: 4px;" d="M 471.803 231.798 L 507.309 217.595 L 567.11 217.595 L 606.354 231.798 L 605.233 280.76 C 605.218 280.76 560.069 294.962 564.867 294.962 L 562.999 487.445 C 564.126 494.209 513.4 493.717 512.542 488.567 L 512.915 300 C 519.632 296.162 472.945 282.616 472.924 282.628 L 471.803 231.798 Z"/>
  <path style="stroke: rgb(0, 0, 0); fill: rgb(52, 48, 48); stroke-width: 4px;" d="M 293.522 476.98 C 294.684 476.98 293.113 493.426 292.775 493.426 C 292.589 496.583 414.928 496.307 415.142 492.673 C 416.113 489.366 415.65 475.977 415.297 475.928 C 415.061 473.557 449.213 474.004 449.751 472.122 C 450.74 471.38 448.844 466.822 448.256 467.263 C 447.42 467.542 425.895 468.861 426.205 468.758 C 426.32 468.605 424.919 457.39 423.962 458.666 C 425.466 456.861 411.591 456.394 411.254 456.798 L 408.638 258.708 C 409.903 256.811 400.347 255.478 400 256.466 C 399.653 257.454 400.447 212.978 404.153 219.464 C 403.655 221.956 429.07 215.228 429.568 212.736 C 435.819 211.347 414.695 199.485 412.376 200 C 412.892 195.356 319.964 197.441 306.23 200 C 292.496 202.559 277.782 209.144 280.814 208.999 C 274.918 208.999 285.33 217.97 305.606 217.97 L 306.977 257.587 C 306.977 257.587 299.626 260.95 300 260.95 C 300.374 260.95 300 457.326 300 457.326 C 299.902 457.228 284.013 459.249 286.047 461.283 C 285.03 460.944 285.998 469.863 286.047 469.879 L 262.274 468.684 C 261.185 468.503 258.952 473.772 260.258 474.364 C 261.564 474.956 293.148 476.607 293.522 476.98 Z"/>
</svg>