<?xml version="1.0" encoding="utf-8"?>
<svg viewBox="0 0 1600 1597" xmlns="http://www.w3.org/2000/svg">
  <path style="stroke: rgb(0, 0, 0); paint-order: fill; stroke-width: 6px;" d="M 126.42 288.76 C 126.42 248.375 1331.864 258.112 1331.864 299.795 L 1330.154 372.542 C 1330.154 364.537 1096.471 832.492 1096.471 832.492 L 1034.35 899.795 L 938.598 1099.795 L 964.246 1131.716 L 1258.34 1165.913 L 1260.05 1199.795 C 1260.05 1199.795 1273.729 1217.208 1253.211 1220.628 C 1232.693 1224.048 1051.449 1237.727 1051.449 1237.727 L 1044.609 1299.795 C 1044.609 1320.617 917.818 1331.354 917.818 1327.153 C 917.818 1327.153 435.061 1344.816 430.773 1299.795 L 396.471 1277.053 L 418.804 1229.177 L 314.503 1234.307 L 234.14 1224.048 L 196.471 1199.795 L 218.752 1167.623 L 464.97 1148.814 C 464.97 1148.814 521.395 1101.505 524.815 1099.795 C 528.235 1098.085 413.674 870.109 413.674 870.109 L 343.571 774.357 L 296.471 637.569 L 234.14 564.046 L 227.301 499.795 L 174.295 399.795 C 174.295 399.795 143.518 358.864 143.518 357.154 C 143.518 355.444 124.71 299.795 126.42 288.76 Z"/>
  <path style="stroke: rgb(0, 0, 0);" d="M 1330.952 367.174 C 1328.647 361.028 1437.552 370.163 1456.792 381.192 C 1508.08 395.469 1552.552 439.641 1550.079 448.291 C 1564.916 454.772 1573.427 581.798 1561.094 600 C 1564.564 620.822 1455.782 704.201 1455.082 700 L 1244.771 800 L 1100 830.987 L 1142.18 747.205 C 1141.91 747.744 1396.228 667.546 1400 660.002 C 1397.374 659.625 1446.693 654.172 1500 550.462 C 1506.738 548.008 1498.095 474.78 1483.857 475.649 C 1487.314 460.275 1400.723 420.99 1400 427.463 C 1401.345 421.075 1303.221 415.581 1300 430.882 L 1330.952 367.174 Z"/>
</svg>