<?xml version="1.0" encoding="utf-8"?>
<svg viewBox="0 0 1600 1597" xmlns="http://www.w3.org/2000/svg">
  <path style="stroke: rgb(0, 0, 0); paint-order: fill; stroke-width: 6px;" d="M 129.949 288.965 C 129.949 248.58 1335.393 258.317 1335.393 300 L 1333.683 372.747 C 1333.683 364.742 1480.73 389.822 1480.73 400 C 1482.146 395.753 1548.721 442.352 1545.705 451.4 C 1545.705 451.4 1564.513 512.955 1566.223 521.504 C 1567.933 530.053 1562.803 591.451 1554.254 600 C 1545.705 608.549 1468.761 684.611 1453.373 700 C 1437.985 715.389 1246.481 800 1246.481 800 L 1100 832.697 L 1037.879 900 L 942.127 1100 L 967.775 1131.921 L 1261.869 1166.118 L 1263.579 1200 C 1263.579 1200 1277.258 1217.413 1256.74 1220.833 C 1236.222 1224.253 1054.978 1237.932 1054.978 1237.932 L 1048.138 1300 C 1048.138 1320.822 921.347 1331.559 921.347 1327.358 C 921.347 1327.358 438.59 1345.021 434.302 1300 L 400 1277.258 L 422.333 1229.382 L 318.032 1234.512 L 237.669 1224.253 L 200 1200 L 222.281 1167.828 L 468.499 1149.019 C 468.499 1149.019 524.924 1101.71 528.344 1100 C 531.764 1098.29 417.203 870.314 417.203 870.314 L 347.1 774.562 L 300 637.774 L 237.669 564.251 L 230.83 500 L 177.824 400 C 177.824 400 147.047 359.069 147.047 357.359 C 147.047 355.649 128.239 300 129.949 288.965 Z"/>
  <path style="stroke: rgb(0, 0, 0); fill: rgb(255, 255, 255);" d="M 1300 437.722 C 1270.761 412.66 1144.968 721.286 1145.285 721.557 C 1106.36 769.465 1217.575 730.14 1260.673 719.847 C 1303.771 709.554 1432.585 644.197 1453.372 620.518 C 1474.159 596.839 1510.48 576.436 1500 500 C 1489.52 423.564 1320.778 404.575 1300 437.722 Z"/>
</svg>