<?xml version="1.0" encoding="utf-8"?>
<svg height="100%" stroke-miterlimit="10" style="fill-rule:nonzero;clip-rule:evenodd;stroke-linecap:round;stroke-linejoin:round;" version="1.1" viewBox="200 100 500 400" width="100%" xmlns="http://www.w3.org/2000/svg">
  <g id="Layer-3" transform="matrix(1, 0, 0, 1, -56.638115, -40.899357)"/>
  <g id="Layer-2" transform="matrix(1, 0, 0, 1, -56.638115, -40.899357)">
    <path d="M617.392 205.669C617.392 205.669 586.99 191.157 573.672 197.219C560.354 203.281 556.037 221.467 556.037 221.467C556.037 221.467 551.904 196.76 561.915 185.095C571.927 173.431 580.836 172.696 596.083 174.808C611.33 176.921 622.902 193.545 622.902 193.545C622.902 193.545 620.882 173.431 610.044 166.358C599.206 159.286 565.222 170.4 565.222 170.4C565.222 170.4 579.091 155.888 589.47 153.132C599.848 150.377 612.156 144.315 621.065 154.234C629.975 164.154 635.394 196.979 635.394 196.979C635.394 196.979 646.232 187.575 657.07 181.054C667.908 174.533 673.97 169.206 686.829 174.441C699.688 179.676 714.016 219.123 714.016 219.123C714.016 219.123 696.381 201.444 686.829 197.219C677.277 192.994 680.124 193.178 673.603 192.443C667.081 191.708 654.627 203.131 651.926 204.935" fill="#2c853e" fill-rule="nonzero" opacity="1" stroke="#000000" stroke-linecap="butt" stroke-linejoin="round" stroke-width="5.05627"/>
    <path d="M604.533 200.893C604.533 200.893 622.418 196.979 637.849 196.979C653.279 196.979 666.255 200.893 666.255 200.893L658.54 241.267L613.35 241.267L604.533 200.893Z" fill="#aa7e57" fill-opacity="0.991392" fill-rule="nonzero" opacity="1" stroke="#000000" stroke-linecap="butt" stroke-linejoin="round" stroke-width="7.0136"/>
  </g>
  <g id="Layer-1" transform="matrix(1, 0, 0, 1, -56.638115, -40.899357)">
    <path d="M301.486 280.721L676.998 281.284L700.998 260.314L467.121 260.37L283.174 260.314L301.486 280.721Z" fill="#47321e" fill-opacity="0.991392" fill-rule="nonzero" opacity="1" stroke="#000000" stroke-linecap="butt" stroke-linejoin="round" stroke-width="4.19743"/>
    <path d="M281.835 241.267L701.174 242.999L700.998 252.948L700.998 260.314L281.916 260.314L281.916 253.923L281.835 241.267Z" fill="#583d25" fill-opacity="0.991392" fill-rule="nonzero" opacity="1" stroke="#000000" stroke-linecap="butt" stroke-linejoin="round" stroke-width="3.66925"/>
    <path d="M301.486 358.464L676.998 358.04C676.998 358.04 689.332 366.645 694.992 370.594C700.652 374.544 699.639 373.837 699.639 373.837L467.121 373.795L281.916 373.762L301.486 358.464Z" fill="#47321e" fill-opacity="0.991392" fill-rule="nonzero" opacity="1" stroke="#000000" stroke-linecap="butt" stroke-linejoin="round" stroke-width="3.54275"/>
    <path d="M301.568 468.385L506.651 467.955L677.08 467.597L701.079 496.961L467.202 496.883L281.997 496.822L301.568 468.385Z" fill="#47321e" fill-opacity="0.991392" fill-rule="nonzero" opacity="1" stroke="#000000" stroke-linecap="butt" stroke-linejoin="round" stroke-width="5.51565"/>
    <path d="M283.174 512" fill="none" opacity="1" stroke="#000000" stroke-linecap="butt" stroke-linejoin="round" stroke-width="9.90959"/>
    <path d="M282.157 373.837L281.74 387.723C281.74 387.723 433.96 387.977 489.827 388.07C545.694 388.164 505.208 388.096 505.208 388.096L536.703 388.149L699.71 388.88L699.71 373.837" fill="#583d25" fill-opacity="0.991392" fill-rule="nonzero" opacity="1" stroke="#000000" stroke-linecap="butt" stroke-linejoin="round" stroke-width="3.9289"/>
    <path d="M281.916 496.961L281.916 512L489.906 512L701.174 512L701.079 496.961" fill="#583d25" fill-opacity="0.991392" fill-rule="nonzero" opacity="1" stroke="#000000" stroke-linecap="butt" stroke-linejoin="round" stroke-width="4.33503"/>
  </g>
  <g id="Layer-4" transform="matrix(1, 0, 0, 1, -56.638115, -40.899357)">
    <path d="M320.558 449.452C320.558 449.452 330.156 453.037 340.278 453.037C350.399 453.037 359.699 450.348 359.699 450.348L358.952 482.279C358.952 482.279 350.603 487.929 340.444 488.377C330.285 488.825 320.409 482.279 320.409 482.279L320.558 449.452Z" fill="#a08f7f" fill-opacity="0.991392" fill-rule="nonzero" opacity="1" stroke="#000000" stroke-linecap="butt" stroke-linejoin="round" stroke-width="3.41847"/>
    <path d="M340.054 445.269C349.839 445.754 359.699 447.312 359.699 449.452C359.699 451.592 349.839 454.314 340.054 453.828C330.268 453.343 320.409 451.592 320.409 449.452C320.409 447.312 330.268 444.783 340.054 445.269Z" fill="#796b5e" fill-opacity="0.991392" fill-rule="nonzero" opacity="1" stroke="#000000" stroke-linecap="butt" stroke-linejoin="round" stroke-width="3.41847"/>
    <path d="M385.394 410.61" fill="#a08f7f" fill-opacity="0.991392" fill-rule="nonzero" opacity="1" stroke="#000000" stroke-linecap="butt" stroke-linejoin="round" stroke-width="5.51565"/>
    <path d="M359.827 472.964L360.003 476.616C360.003 476.616 362.434 475.306 364.716 473.73C366.999 472.154 368.987 470.233 370.548 467.597C372.11 464.96 372.721 463.385 372.294 461.117C371.867 458.849 370.61 457.573 367.839 457.117C366.407 456.881 365.699 457.011 364.167 457.315C362.734 457.6 360.453 458.817 359.699 459.251C358.138 460.15 359.768 458.236 359.768 458.236L359.699 463.954C359.699 463.954 362.537 461.403 364.068 461.241C365.6 461.079 367.668 460.872 368.212 461.948C368.757 463.023 365.399 467.865 364.31 468.925C363.22 469.986 362.198 470.386 361.064 470.902C359.93 471.417 359.945 470.195 359.945 470.195L360.003 475.026" fill="#a08f7f" fill-opacity="0.991392" fill-rule="nonzero" opacity="1" stroke="#000000" stroke-linecap="butt" stroke-linejoin="round" stroke-width="2.1002"/>
    <path d="M332.878 451.635L332.775 462.481L335.026 467.597" fill="#a08f7f" fill-opacity="0" fill-rule="nonzero" opacity="1" stroke="#000000" stroke-linecap="butt" stroke-linejoin="round" stroke-width="0.839549"/>
    <path d="M332.775 467.597L335.037 467.597L336.928 467.597L337.002 472.239L332.775 472.045L332.775 467.597Z" fill="#663e86" fill-opacity="0.991392" fill-rule="nonzero" opacity="1" stroke="#000000" stroke-linecap="butt" stroke-linejoin="round" stroke-width="0.839549"/>
  </g>
</svg>