<?xml version="1.0" encoding="utf-8"?>
<svg viewBox="100 100 300 400" xmlns="http://www.w3.org/2000/svg">
  <ellipse style="stroke: rgb(0, 0, 0); stroke-width: 12px;" cx="250" cy="313.972" rx="141.222" ry="130.786" transform="matrix(0.996369, 0.085141, -0.067917, 0.997841, 22.639985, -2.218262)"/>
  <path style="stroke: rgb(0, 0, 0); fill: rgba(216, 216, 216, 0); stroke-width: 12px;" d="M 237.407 172.689 C 272.466 138.233 287.971 137.391 327.032 166.881 C 289.568 207.972 279.282 196.676 237.407 172.689 Z" transform="matrix(0.872592, -0.48845, 0.48845, 0.872592, -47.072759, 159.507734)"/>
  <path style="stroke: rgb(0, 0, 0); fill: rgba(216, 216, 216, 0); stroke-width: 12px;" d="M 153.36 172.283 C 188.419 137.827 203.924 136.985 242.985 166.475 C 205.521 207.566 195.235 196.27 153.36 172.283 Z" transform="matrix(0.845696, 0.533665, -0.533665, 0.845696, 121.077874, -79.590797)"/>
  <path style="fill: rgba(216, 216, 216, 0); stroke: rgb(255, 255, 255); stroke-width: 12px;" d="M 323.814 249.74 C 368.505 276.468 384.626 351.077 334.676 407.432"/>
  <path style="stroke: rgb(0, 0, 0); fill: rgba(216, 216, 216, 0); stroke-width: 12px;" d="M 240.779 186.474 L 236.538 126.941"/>
</svg>